<?xml version="1.0" encoding="UTF-8" standalone="no"?>
<!-- Created with Inkscape (http://www.inkscape.org/) -->

<svg
   width="139.6739mm"
   height="124.66612mm"
   viewBox="0 0 139.6739 124.66612"
   version="1.1"
   id="svg1"
   xml:space="preserve"
   xmlns="http://www.w3.org/2000/svg"
   xmlns:svg="http://www.w3.org/2000/svg"><defs
     id="defs1" /><g
     id="layer1"
     transform="translate(-33.579186,-46.754828)"><g
       id="g2"
       transform="translate(-11.253045,13.664412)"><path
         d="m 285.78117,17.810604 c -0.82396,0 -1.62858,0.08322 -2.40606,0.242737 -0.77748,0.159512 -1.52779,0.395731 -2.24265,0.698608 -0.71486,0.302877 -1.39462,0.673471 -2.0307,1.103565 -0.63608,0.430093 -1.22904,0.91881 -1.7702,1.459973 -0.54117,0.541162 -1.02988,1.134119 -1.45998,1.770202 -0.43009,0.636084 -0.80068,1.315844 -1.10356,2.030701 -0.30288,0.714857 -0.53791,1.46517 -0.69743,2.242651 -0.15951,0.777482 -0.24392,1.582096 -0.24392,2.406055 V 144.03611 H 255.89494 V 49.574788 c 0,-0.82396 -0.0832,-1.628572 -0.24274,-2.406054 -0.15951,-0.777483 -0.39573,-1.527795 -0.69861,-2.242652 -0.30288,-0.714857 -0.67229,-1.393433 -1.10238,-2.029516 -0.43009,-0.636084 -0.91999,-1.229041 -1.46116,-1.770203 -0.54116,-0.541162 -1.13412,-1.031064 -1.7702,-1.461157 -0.63608,-0.430093 -1.31584,-0.800688 -2.0307,-1.103565 -0.71486,-0.302876 -1.46517,-0.537912 -2.24265,-0.697424 -0.77748,-0.159512 -1.5821,-0.243921 -2.40606,-0.243921 -0.82396,0 -1.62857,0.08441 -2.40605,0.243921 -0.77748,0.159512 -1.5278,0.394548 -2.24265,0.697424 -0.71486,0.302877 -1.39462,0.673472 -2.0307,1.103565 -0.63609,0.430093 -1.22786,0.919995 -1.76902,1.461157 -0.54116,0.541162 -1.03107,1.134119 -1.46116,1.770203 -0.43009,0.636083 -0.80069,1.314659 -1.10356,2.029516 -0.30288,0.714857 -0.53792,1.465169 -0.69743,2.242652 -0.15951,0.777482 -0.24392,1.582094 -0.24392,2.406054 V 197.83133 h -17.93174 v -47.81797 c 0,-0.82396 -0.0832,-1.62857 -0.24273,-2.40605 -0.15952,-0.77749 -0.39455,-1.5278 -0.69743,-2.24266 -0.30287,-0.71485 -0.67347,-1.39461 -1.10356,-2.0307 -0.4301,-0.63608 -0.92,-1.22785 -1.46116,-1.76902 -0.54116,-0.54116 -1.13412,-1.03106 -1.7702,-1.46115 -0.63609,-0.4301 -1.31585,-0.80069 -2.0307,-1.10357 -0.71486,-0.30287 -1.46517,-0.53791 -2.24265,-0.69742 -0.77749,-0.15951 -1.5821,-0.24392 -2.40606,-0.24392 -0.82396,0 -1.62857,0.0844 -2.40605,0.24392 -0.77749,0.15951 -1.5278,0.39455 -2.24265,0.69742 -0.71486,0.30288 -1.39462,0.67347 -2.03071,1.10357 -0.63608,0.43009 -1.22785,0.91999 -1.76901,1.46115 -0.54117,0.54117 -1.03107,1.13294 -1.46116,1.76902 -0.43009,0.63609 -0.80069,1.31585 -1.10357,2.0307 -0.30287,0.71486 -0.53791,1.46517 -0.69742,2.24266 -0.15951,0.77748 -0.24392,1.58209 -0.24392,2.40605 v 61.45978 c 0,2.08048 0.10611,4.13624 0.3126,6.16314 0.20648,2.02691 0.5137,4.02477 0.91648,5.98791 0.40277,1.96313 0.9007,3.89152 1.48957,5.78069 0.58887,1.88916 1.2683,3.73886 2.03307,5.54387 0.76477,1.80501 1.6153,3.56561 2.54578,5.27627 0.93047,1.71065 1.9417,3.37177 3.02769,4.97788 1.086,1.60611 2.24634,3.15733 3.47765,4.6487 1.23132,1.49138 2.53275,2.92231 3.89919,4.28875 1.36643,1.36644 2.79855,2.66787 4.28992,3.89918 1.49138,1.23131 3.0426,2.39284 4.64871,3.47883 1.60611,1.086 3.26722,2.09604 4.97788,3.02652 1.71066,0.93047 3.47126,1.78101 5.27627,2.54577 1.80501,0.76477 3.65352,1.44421 5.54269,2.03307 1.88917,0.58887 3.81874,1.08681 5.78187,1.48958 1.96314,0.40277 3.961,0.70999 5.9879,0.91648 2.02691,0.20648 4.08267,0.3126 6.16315,0.3126 h 70.53103 c 2.08048,0 4.13743,-0.10612 6.16433,-0.3126 2.02691,-0.20649 4.02359,-0.51371 5.98672,-0.91648 1.96313,-0.40277 3.8927,-0.90071 5.78187,-1.48958 1.88917,-0.58886 3.73886,-1.2683 5.54388,-2.03307 1.80501,-0.76476 3.56442,-1.6153 5.27508,-2.54577 1.71066,-0.93048 3.37177,-1.94052 4.97788,-3.02652 1.60611,-1.08599 3.15734,-2.24752 4.64871,-3.47883 1.49137,-1.23131 2.92349,-2.53274 4.28993,-3.89918 1.36644,-1.36644 2.66787,-2.79737 3.89918,-4.28875 1.23131,-1.49137 2.39166,-3.04259 3.47765,-4.6487 1.08599,-1.60611 2.09722,-3.26723 3.0277,-4.97788 0.93047,-1.71066 1.781,-3.47126 2.54577,-5.27627 0.76477,-1.80501 1.4442,-3.65471 2.03307,-5.54387 0.58887,-1.88917 1.0868,-3.81756 1.48958,-5.78069 0.40277,-1.96314 0.70999,-3.961 0.91648,-5.98791 0.20648,-2.0269 0.31259,-4.08266 0.31259,-6.16314 V 71.263622 c 0,-0.82396 -0.0844,-1.62858 -0.24392,-2.40606 -0.15951,-0.77748 -0.39455,-1.52779 -0.69742,-2.24265 -0.30288,-0.71486 -0.67347,-1.39462 -1.10357,-2.0307 -0.43009,-0.63608 -0.91999,-1.22904 -1.46115,-1.7702 -0.54117,-0.54116 -1.13294,-1.02988 -1.76902,-1.45998 -0.63609,-0.43009 -1.31585,-0.80068 -2.0307,-1.10356 -0.71486,-0.30288 -1.46517,-0.53791 -2.24265,-0.69742 -0.77749,-0.15952 -1.5821,-0.24393 -2.40606,-0.24393 -0.82396,0 -1.62857,0.0844 -2.40605,0.24393 -0.77749,0.15951 -1.5278,0.39454 -2.24266,0.69742 -0.71485,0.30288 -1.39461,0.67347 -2.0307,1.10356 -0.63608,0.4301 -1.22904,0.91882 -1.7702,1.45998 -0.54116,0.54116 -1.03106,1.13412 -1.46116,1.7702 -0.43009,0.63608 -0.80068,1.31584 -1.10356,2.0307 -0.30288,0.71486 -0.53791,1.46517 -0.69742,2.24265 -0.15952,0.77748 -0.24274,1.5821 -0.24274,2.40606 V 144.03611 H 339.57638 V 49.574788 c 0,-0.82396 -0.0844,-1.628572 -0.24392,-2.406054 -0.15951,-0.777483 -0.39455,-1.527795 -0.69742,-2.242652 -0.30288,-0.714857 -0.67348,-1.393433 -1.10357,-2.029516 -0.43009,-0.636084 -0.91999,-1.229041 -1.46116,-1.770203 -0.54116,-0.541162 -1.13293,-1.031064 -1.76901,-1.461157 -0.63609,-0.430093 -1.31585,-0.800688 -2.03071,-1.103565 -0.71485,-0.302876 -1.46516,-0.537912 -2.24265,-0.697424 -0.77748,-0.159512 -1.58209,-0.243921 -2.40605,-0.243921 -0.82396,0 -1.62857,0.08441 -2.40606,0.243921 -0.77748,0.159512 -1.52779,0.394548 -2.24265,0.697424 -0.71485,0.302877 -1.39461,0.673472 -2.0307,1.103565 -0.63608,0.430093 -1.22904,0.919995 -1.7702,1.461157 -0.54116,0.541162 -1.02988,1.134119 -1.45997,1.770203 -0.4301,0.636083 -0.80069,1.314659 -1.10357,2.029516 -0.30288,0.714857 -0.53909,1.465169 -0.69861,2.242652 -0.15951,0.777482 -0.24273,1.582094 -0.24273,2.406054 V 144.03611 H 297.73566 V 29.765096 c 0,-0.823959 -0.0832,-1.628573 -0.24274,-2.406055 -0.15951,-0.777481 -0.39573,-1.527794 -0.69861,-2.242651 -0.30287,-0.714857 -0.67347,-1.394617 -1.10356,-2.030701 -0.4301,-0.636083 -0.91881,-1.22904 -1.45997,-1.770202 -0.54117,-0.541163 -1.13412,-1.02988 -1.77021,-1.459973 -0.63608,-0.430094 -1.31584,-0.800688 -2.0307,-1.103565 -0.71485,-0.302877 -1.46517,-0.539096 -2.24265,-0.698608 -0.77748,-0.159513 -1.58209,-0.242737 -2.40605,-0.242737 z"
         style="fill:#ffc286;stroke:#000000;stroke-width:31.6205;stroke-linejoin:round;stroke-dasharray:none;paint-order:stroke markers fill"
         id="path2"
         transform="matrix(0.43642611,0,0,0.43642611,-11.99098,32.21741)" /><text
         xml:space="preserve"
         style="font-size:35.9784px;fill:#545454;fill-opacity:1;stroke:#d40000;stroke-width:2.99819;paint-order:stroke markers fill"
         x="47.858669"
         y="147.53313"
         id="text1"><tspan
           id="tspan1"
           style="font-style:normal;font-variant:normal;font-weight:normal;font-stretch:normal;font-family:'Bukhari Script';-inkscape-font-specification:'Bukhari Script';fill:#545454;fill-opacity:1;stroke:#141414;stroke-width:2.99819;stroke-opacity:1;paint-order:stroke markers fill"
           x="47.858669"
           y="147.53313">Reacher</tspan></text></g></g></svg>
